Title: The Fure Fure Girl
Year: 2008
Country: Japan
Language: Japanese
Film Genre: Comedy
Original Title: アウトレイジ
Subtitles: English(srt/idx,sub), Korean(smi)
Director: Kensaku Watanabe
Cast: Yui Aragaki, Tokio Emoto, Kento Nagayama, Takashi Naitô, Yoshiki Saitô, Shôta Someya
IMDB Link: http://www.imdb.com/title/tt1260937/


Plot or synopsis
Momoko is a high school girl hooked on fictional love stories. One day, she falls in love with the ace for the school's baseball team. To support him, Momoko joins the cheering group, which is almost eliminated by the school because of lack of members. Momoko tries hard to recruit new members for the cheering club and even though all she wants is for the team to remain active, she is nominated to become the group leader! However, members of the cheering club are really dependable...



General
Complete name : The.Fure.Fure.Girl.2008.DVDRip.XviD.AC3-BAUM.avi
Format : AVI
Format/Info : Audio Video Interleave
Format profile : OpenDML
File size : 1.46 GiB
Duration : 1h 53mn
Overall bit rate : 1 834 Kbps
Writing application : AVI-Mux GUI 1.17.8.3, Feb 16 201019:42:50
Video #0
ID : 0
Format : MPEG-4 Visual
Format profile : Advanced Simple@L5
Format settings, BVOP : Yes
Format settings, QPel : No
Format settings, GMC : No warppoints
Format settings, Matrix : Default (H.263)
Codec ID : XVID
Codec ID/Hint : XviD
Duration : 1h 53mn
Bit rate : 1 444 Kbps
Width : 720 pixels
Height : 384 pixels
Display aspect ratio : 1.875
Frame rate : 23.976 fps
Color space : YUV
Chroma subsampling : 4:2:0
Bit depth : 8 bits
Scan type : Progressive
Bits/(Pixel*Frame) : 0.218
Stream size : 1.15 GiB (79%)
Writing library : XviD 1.2.1 (UTC 2008-12-04)
Audio #1
ID : 1
Format : AC-3
Format/Info : Audio Coding 3
Mode extension : CM (complete main)
Codec ID : 2000
Duration : 1h 53mn
Bit rate mode : Constant
Bit rate : 384 Kbps
Channel(s) : 2 channels
Channel positions : Front: L R
Sampling rate : 48.0 KHz
Bit depth : 16 bits
Stream size : 312 MiB (21%)
Alignment : Aligned on interleaves
Interleave, duration : 64 ms (1.53 video frames)
Interleave, preload duration : 192 ms
Title : VTS_01_1 T80 2_0ch 384Kbps DELAY 0ms

[IMG]http://img32.imageshack.us/img32/3374/thefurefuregirl2008dvdr.jpg[/IMG]

[IMG]http://img402.imageshack.us/img402/3374/thefurefuregirl2008dvdr.jpg[/IMG]

[IMG]http://img41.imageshack.us/img41/3374/thefurefuregirl2008dvdr.jpg[/IMG]

[IMG]http://img529.imageshack.us/img529/3374/thefurefuregirl2008dvdr.jpg[/IMG]

[IMG]http://img209.imageshack.us/img209/3374/thefurefuregirl2008dvdr.jpg[/IMG]